<?xml version="1.0" encoding="utf-8"?>
<!-- Generator: Adobe Illustrator 27.5.0, SVG Export Plug-In . SVG Version: 6.00 Build 0)  -->
<svg version="1.1" xmlns="http://www.w3.org/2000/svg" xmlns:xlink="http://www.w3.org/1999/xlink" x="0px" y="0px"
	 viewBox="0 0 500 500" style="enable-background:new 0 0 500 500;" xml:space="preserve">
<g id="Background_complete">
	<g>
		<g>
			<rect y="382.398" style="fill:#E6E6E6;" width="500" height="0.25"/>
			<rect x="449.632" y="391.222" style="fill:#E6E6E6;" width="18.773" height="0.25"/>
			<rect x="373.066" y="398.083" style="fill:#E6E6E6;" width="8.693" height="0.25"/>
			<rect x="279.963" y="394.625" style="fill:#E6E6E6;" width="19.359" height="0.25"/>
			<rect x="80.932" y="394.5" style="fill:#E6E6E6;" width="43.193" height="0.25"/>
			<rect x="65.696" y="394.5" style="fill:#E6E6E6;" width="6.333" height="0.25"/>
			<rect x="189.296" y="388.583" style="fill:#E6E6E6;" width="93.676" height="0.25"/>
			<path style="fill:#E6E6E6;" d="M237.014,337.8H43.915c-3.147,0-5.708-2.561-5.708-5.708V60.66c0-3.147,2.561-5.708,5.708-5.708
				h193.099c3.146,0,5.707,2.561,5.707,5.708v271.432C242.721,335.239,240.16,337.8,237.014,337.8z M43.915,55.203
				c-3.01,0-5.458,2.448-5.458,5.458v271.432c0,3.01,2.448,5.458,5.458,5.458h193.099c3.009,0,5.457-2.448,5.457-5.458V60.66
				c0-3.009-2.448-5.458-5.457-5.458H43.915z"/>
			<path style="fill:#E6E6E6;" d="M453.31,337.8H260.212c-3.146,0-5.707-2.561-5.707-5.708V60.66c0-3.147,2.561-5.708,5.707-5.708
				H453.31c3.148,0,5.708,2.561,5.708,5.708v271.432C459.019,335.239,456.458,337.8,453.31,337.8z M260.212,55.203
				c-3.009,0-5.457,2.448-5.457,5.458v271.432c0,3.01,2.448,5.458,5.457,5.458H453.31c3.01,0,5.458-2.448,5.458-5.458V60.66
				c0-3.009-2.448-5.458-5.458-5.458H260.212z"/>
		</g>
		<g>
			<g>
				<g>
					<rect x="58.709" y="73.675" style="fill:#FAFAFA;" width="202.246" height="144.13"/>
					<rect x="60.457" y="73.675" style="fill:#F5F5F5;" width="204.24" height="144.13"/>
					
						<rect x="96.396" y="48.858" transform="matrix(-1.836970e-16 1 -1 -1.836970e-16 308.3175 -16.8371)" style="fill:#FAFAFA;" width="132.362" height="193.763"/>
					<polygon style="fill:#FFFFFF;" points="100.976,211.921 131.721,79.559 172.024,79.559 141.279,211.921 					"/>
					<polygon style="fill:#FFFFFF;" points="147.801,211.921 178.546,79.559 196.747,79.559 166.003,211.921 					"/>
					
						<rect x="192.945" y="145.408" transform="matrix(-1.836970e-16 1 -1 -1.836970e-16 404.8666 -113.3862)" style="fill:#FAFAFA;" width="132.362" height="0.665"/>
				</g>
				<g>
					<path style="fill:#E0E0E0;" d="M54.778,73.444v57.112h15.111c0,0,27.15-17.71,33.32-54.14c0.627-3.699-2.206-7.084-5.958-7.084
						H58.89C56.619,69.332,54.778,71.173,54.778,73.444z"/>
					<path style="fill:#E0E0E0;" d="M54.778,235.444V135.167h15.111c0,0,30.667,59.057,34.222,100.278H54.778z"/>
					<path style="fill:#F5F5F5;" d="M69.444,135.167H55.333c-0.836,0-1.514-0.678-1.514-1.514v-1.583
						c0-0.836,0.678-1.514,1.514-1.514h14.111c0.836,0,1.514,0.678,1.514,1.514v1.583C70.958,134.489,70.28,135.167,69.444,135.167z
						"/>
				</g>
				<g>
					<path style="fill:#E0E0E0;" d="M268.976,73.444v57.112h-15.111c0,0-27.15-17.71-33.32-54.14
						c-0.626-3.699,2.206-7.084,5.958-7.084h38.361C267.135,69.332,268.976,71.173,268.976,73.444z"/>
					<path style="fill:#E0E0E0;" d="M268.976,235.444V135.167h-15.111c0,0-30.667,59.057-34.222,100.278H268.976z"/>
					<path style="fill:#F5F5F5;" d="M254.309,135.167h14.111c0.836,0,1.514-0.678,1.514-1.514v-1.583
						c0-0.836-0.678-1.514-1.514-1.514h-14.111c-0.836,0-1.514,0.678-1.514,1.514v1.583
						C252.795,134.489,253.473,135.167,254.309,135.167z"/>
				</g>
			</g>
			<g>
				<rect x="231.201" y="253.662" style="fill:#FAFAFA;" width="33.233" height="128.736"/>
				<polygon style="fill:#F4F8FF;" points="255.56,382.398 264.434,382.398 264.434,367.527 246.256,367.527 				"/>
				<rect x="72.221" y="253.662" style="fill:#E0E0E0;" width="33.233" height="128.736"/>
				<rect x="97.71" y="253.662" style="fill:#FAFAFA;" width="166.725" height="123.618"/>
				<path style="fill:#EBEBEB;" d="M147.801,231.8c0,12.024,11.564,21.862,25.697,21.862h12.757
					c14.133,0,25.697-9.838,25.697-21.862H147.801z"/>
				<path style="fill:#E0E0E0;" d="M140.402,204.333h24c0,0-4.167,11.001-4.167,17.476c0,6.474,18.254,31.853-7.834,31.853
					c-26.087,0-7.833-25.379-7.833-31.853C144.568,215.335,140.402,204.333,140.402,204.333z"/>
				<rect x="104.594" y="261.191" style="fill:#EBEBEB;" width="152.956" height="31.167"/>
				<polygon style="fill:#FAFAFA;" points="106.584,382.398 97.71,382.398 97.71,367.527 115.888,367.527 				"/>
				<path style="fill:#FAFAFA;" d="M176.373,276.773c0,2.595,2.104,4.699,4.699,4.699s4.699-2.104,4.699-4.699
					c0-2.595-2.104-4.699-4.699-4.699S176.373,274.178,176.373,276.773z"/>
				<rect x="104.594" y="299.887" style="fill:#EBEBEB;" width="152.956" height="31.167"/>
				<path style="fill:#FAFAFA;" d="M176.373,315.472c0,2.595,2.104,4.699,4.699,4.699s4.699-2.104,4.699-4.699
					c0-2.595-2.104-4.699-4.699-4.699S176.373,312.876,176.373,315.472z"/>
				<rect x="104.594" y="338.583" style="fill:#EBEBEB;" width="152.956" height="31.167"/>
				<circle style="fill:#FAFAFA;" cx="181.072" cy="354.167" r="4.699"/>
			</g>
			<g>
				<rect x="295.646" y="71.936" style="fill:#E0E0E0;" width="74.225" height="52.84"/>
				<rect x="299.871" y="71.936" style="fill:#F5F5F5;" width="76.071" height="52.84"/>
				
					<rect x="316.337" y="65.171" transform="matrix(-1.836970e-16 1 -1 -1.836970e-16 436.2626 -239.5503)" style="fill:#FFFFFF;" width="43.139" height="66.37"/>
				
					<rect x="328.904" y="76.853" transform="matrix(-1.836970e-16 1 -1 -1.836970e-16 436.2626 -239.5503)" style="fill:#F5F5F5;" width="18.005" height="43.006"/>
			</g>
			<g>
				<rect x="384.921" y="98.356" style="fill:#E0E0E0;" width="45.182" height="47.384"/>
				<rect x="389.146" y="98.356" style="fill:#F5F5F5;" width="47.028" height="47.384"/>
				
					<rect x="393.819" y="103.385" transform="matrix(-1.836970e-16 1 -1 -1.836970e-16 534.7086 -290.6123)" style="fill:#FFFFFF;" width="37.683" height="37.327"/>
				<path style="fill:#F5F5F5;" d="M405.679,122.048L405.679,122.048c0-3.465,2.809-6.274,6.274-6.274h1.414
					c3.465,0,6.274,2.809,6.274,6.274l0,0c0,3.465-2.809,6.274-6.274,6.274h-1.414C408.488,128.323,405.679,125.513,405.679,122.048
					z"/>
			</g>
			<g>
				<polygon style="fill:#FAFAFA;" points="500,161.851 380.704,161.851 359.014,161.851 359.014,189.419 359.014,189.419 
					359.014,189.419 359.014,189.419 337.324,189.419 337.324,216.988 337.324,216.988 315.634,216.988 315.634,244.556 
					315.634,244.556 293.944,244.556 293.944,272.125 293.944,272.125 272.254,272.125 272.254,299.693 272.254,299.693 
					250.564,299.693 250.564,327.262 250.564,327.262 250.564,327.262 250.564,327.262 228.873,327.262 228.873,354.83 
					228.874,354.83 228.873,354.83 228.873,354.83 207.183,354.83 207.183,382.398 228.873,382.398 500,382.398 				"/>
				<g>
					<rect x="204.953" y="354.83" style="fill:#EBEBEB;" width="123.634" height="8.271"/>
					<rect x="226.643" y="327.262" style="fill:#EBEBEB;" width="123.634" height="8.271"/>
					<rect x="248.333" y="299.693" style="fill:#EBEBEB;" width="123.634" height="8.271"/>
					<rect x="270.024" y="272.125" style="fill:#EBEBEB;" width="123.634" height="8.271"/>
					<rect x="291.714" y="244.556" style="fill:#EBEBEB;" width="123.634" height="8.271"/>
					<rect x="313.404" y="216.988" style="fill:#EBEBEB;" width="123.634" height="8.271"/>
					<rect x="335.094" y="189.419" style="fill:#EBEBEB;" width="123.634" height="8.271"/>
					<rect x="356.784" y="161.851" style="fill:#EBEBEB;" width="123.634" height="8.271"/>
				</g>
				<polygon style="fill:#FFFFFF;" points="478.31,161.851 478.31,189.419 478.31,189.419 478.31,189.419 478.31,189.419 
					456.62,189.419 456.62,216.988 456.62,216.988 456.62,216.988 456.62,216.988 434.93,216.988 434.93,244.556 434.93,244.556 
					434.93,244.556 434.93,244.556 413.24,244.556 413.24,272.125 413.239,272.125 391.549,272.125 391.549,299.693 
					391.549,299.693 369.859,299.693 369.859,327.262 369.859,327.262 348.169,327.262 348.169,354.83 348.169,354.83 
					326.479,354.83 326.479,382.398 348.169,382.398 500,382.398 500,189.419 500,161.851 				"/>
			</g>
		</g>
	</g>
</g>
<g id="Background_simple" style="display:none;">
	<g style="display:inline;">
		<path style="fill:#407BFF;" d="M147.702,309.971c12.747,3.822,27.464,0.612,38.093-9.037c10.271-9.324,24.395-13.383,37.62-12.708
			c23.567,1.202,44.712,13.731,64.351,22.767c9.122,4.197,18.555,8.242,28.904,10.212c25.035,4.765,47.762-7.58,66.199-25.394
			c37.973-36.692,48.055-97.166,36.547-139.014c-7.535-27.401-46.102-81.369-96.265-76.043
			c-47.591,5.053-18.927,74.044-63.944,80.758c-49.725,7.416-51.482-70.277-112.414-59.716
			c-55.053,9.541-82.394,58.364-65.214,98.402c8.39,19.553,24.456,34.939,33.007,54.297
			C123.765,275.277,119.694,301.573,147.702,309.971z"/>
		<path style="opacity:0.8;fill:#FFFFFF;" d="M147.702,309.971c12.747,3.822,27.464,0.612,38.093-9.037
			c10.271-9.324,24.395-13.383,37.62-12.708c23.567,1.202,44.712,13.731,64.351,22.767c9.122,4.197,18.555,8.242,28.904,10.212
			c25.035,4.765,47.762-7.58,66.199-25.394c37.973-36.692,48.055-97.166,36.547-139.014c-7.535-27.401-46.102-81.369-96.265-76.043
			c-47.591,5.053-18.927,74.044-63.944,80.758c-49.725,7.416-51.482-70.277-112.414-59.716
			c-55.053,9.541-82.394,58.364-65.214,98.402c8.39,19.553,24.456,34.939,33.007,54.297
			C123.765,275.277,119.694,301.573,147.702,309.971z"/>
	</g>
</g>
<g id="Shadow">
	<ellipse style="fill:#F5F5F5;" cx="250" cy="416.238" rx="193.889" ry="11.323"/>
</g>
<g id="Character">
	<g>
		<path style="fill:#263238;" d="M365.15,162.022c1.397,4.686,8.622,13.465,9.189,19.861c0.567,6.397-11.741,16.605-11.741,16.605
			s-9.2-30.754-3.44-34.351C364.918,160.539,365.15,162.022,365.15,162.022z"/>
		<path style="fill:#E58A7B;" d="M339.867,195.227c-2.181,1.82-4.317,3.356-6.548,4.922c-2.226,1.535-4.527,2.964-6.866,4.342
			c-2.331,1.39-4.766,2.639-7.257,3.79c-1.255,0.564-2.511,1.124-3.809,1.619c-0.641,0.26-1.285,0.513-1.952,0.733l-2.036,0.697
			c-2.031,0.587-3.712,0.53-5.265,0.377c-1.549-0.169-2.976-0.478-4.358-0.838c-2.754-0.73-5.31-1.716-7.806-2.775
			c-4.969-2.185-9.651-4.659-14.192-7.551l1.875-3.484c2.354,0.98,4.771,1.972,7.178,2.871c2.4,0.931,4.819,1.794,7.241,2.544
			c2.411,0.769,4.84,1.434,7.193,1.88c1.172,0.219,2.331,0.372,3.394,0.407c1.049,0.037,2.042-0.061,2.518-0.265
			c2.168-0.846,4.501-1.876,6.685-3.031c1.101-0.587,2.202-1.178,3.283-1.818c1.094-0.614,2.177-1.256,3.251-1.918
			c2.148-1.324,4.25-2.74,6.328-4.191c2.069-1.426,4.157-2.995,6.052-4.466L339.867,195.227z"/>
		<g>
			<path style="fill:#407BFF;" d="M345.152,184.583c-2.485-1.941-12.741,4.41-15.857,7.059l2.273,13.73
				c0,0,14.747-6.179,15.635-10.407C348.129,190.562,347.038,186.057,345.152,184.583z"/>
			<path style="opacity:0.2;" d="M345.152,184.583c-2.485-1.941-12.741,4.41-15.857,7.059l2.273,13.73
				c0,0,14.747-6.179,15.635-10.407C348.129,190.562,347.038,186.057,345.152,184.583z"/>
		</g>
		<g>
			<path style="fill:#407BFF;" d="M379.655,226.13c-6.02,1.17-18.79,3.66-31.14,6.07c-16.09-43.57-12.59-44.98-12.59-44.98
				s3.09-1.75,7.01-3.3c0.15-0.06,0.29-0.11,0.42-0.16c1.98-0.73,2.4-0.84,5.06-1.62c4.58-1.09,8.85-1.98,14.14-2.75
				c0.34-0.05,0.68-0.1,1.01-0.14c0.96-0.12,1.91-0.22,2.83-0.31c0.62-0.07,1.24-0.11,1.83-0.15c0.7-0.04,1.38-0.08,2.02-0.11
				c3.42-0.17,5.87-0.12,5.87-0.12C375.125,205.75,376.665,213.56,379.655,226.13z"/>
			<path style="opacity:0.2;" d="M379.655,226.13c-6.02,1.17-18.79,3.66-31.14,6.07c-16.09-43.57-12.59-44.98-12.59-44.98
				s3.09-1.75,7.01-3.3c0.15-0.06,0.29-0.11,0.42-0.16c1.98-0.73,2.4-0.84,5.06-1.62c4.58-1.09,8.85-1.98,14.14-2.75
				c0.34-0.05,0.68-0.1,1.01-0.14c0.96-0.12,1.91-0.22,2.83-0.31c0.62-0.07,1.24-0.11,1.83-0.15c0.7-0.04,1.38-0.08,2.02-0.11
				c3.42-0.17,5.87-0.12,5.87-0.12C375.125,205.75,376.665,213.56,379.655,226.13z"/>
		</g>
		<g>
			<path style="fill:#407BFF;" d="M355.268,165.13c-2.026,3.315,5.251,4.844,9.538,1.45c3.438-2.721,2.623-8.997-0.311-10.456
				C361.664,154.717,355.268,165.13,355.268,165.13z"/>
			<path style="opacity:0.4;" d="M355.268,165.13c-2.026,3.315,5.251,4.844,9.538,1.45c3.438-2.721,2.623-8.997-0.311-10.456
				C361.664,154.717,355.268,165.13,355.268,165.13z"/>
		</g>
		<polygon style="fill:#E58A7B;" points="385.581,406.47 377.79,407.045 374.94,389.115 382.731,388.54 		"/>
		<polygon style="fill:#E58A7B;" points="440.683,381.407 434.075,385.573 422.302,371.61 428.91,367.443 		"/>
		<g>
			<polygon style="fill:#CF6F64;" points="374.942,389.12 376.524,399.085 384.205,397.793 382.736,388.545 			"/>
			<polygon style="fill:#CF6F64;" points="428.915,367.446 422.304,371.614 427.177,377.389 433.939,373.4 			"/>
		</g>
		<g>
			<path style="fill:#407BFF;" d="M348.985,232.198c0,0-0.119,61.821,4.938,85.106c5.26,24.22,20.728,79.317,20.728,79.317
				l11.219-1.454c0,0-8.77-55.657-12.506-79.723c-4.073-26.235-1.574-87.688-1.574-87.688L348.985,232.198z"/>
			<path style="opacity:0.7;" d="M348.985,232.198c0,0-0.119,61.821,4.938,85.106c5.26,24.22,20.728,79.317,20.728,79.317
				l11.219-1.454c0,0-8.77-55.657-12.506-79.723c-4.073-26.235-1.574-87.688-1.574-87.688L348.985,232.198z"/>
		</g>
		<path style="opacity:0.5;" d="M371.115,255.16l-5.5-5.48c0.21,23.75,1.54,35.48,6.11,48.26
			C370.994,284.43,370.944,268.45,371.115,255.16z"/>
		<g>
			<path style="fill:#407BFF;" d="M356.735,230.596c0,0,16.772,51.096,25.096,80.523c8.783,31.048,42.441,65.389,42.441,65.389
				l9.656-5.577c0,0-22.982-32.598-31.458-61.57c-17.206-58.815-10.135-71.273-22.818-83.229L356.735,230.596z"/>
			<path style="opacity:0.7;" d="M356.735,230.596c0,0,16.772,51.096,25.096,80.523c8.783,31.048,42.441,65.389,42.441,65.389
				l9.656-5.577c0,0-22.982-32.598-31.458-61.57c-17.206-58.815-10.135-71.273-22.818-83.229L356.735,230.596z"/>
		</g>
		<path style="fill:#263238;" d="M343.563,147.085c4.457,1.494,8.506,12.569,8.675,16.926c0.17,4.357-12.914,10.37-12.914,10.37
			s-5.773-14.036-4.166-22.984C335.864,147.471,343.563,147.085,343.563,147.085z"/>
		<path style="fill:#E58A7B;" d="M282.346,197.431l-5.287-5.764l-1.73,7.223c0,0,3.762,3.318,6.806,2.185L282.346,197.431z"/>
		<polygon style="fill:#E58A7B;" points="271.705,190.016 268,192.958 275.329,198.89 277.059,191.667 		"/>
		<path style="fill:#263238;" d="M431.99,384.082l6.184-6.228c0.225-0.227,0.565-0.254,0.818-0.066l5.632,4.183
			c0.584,0.434,0.632,1.354,0.103,1.868c-2.193,2.134-3.36,3.054-6.079,5.793c-1.673,1.685-3.942,4.321-6.252,6.648
			c-2.259,2.276-4.734,0.167-3.981-1.009c3.379-5.272,2.772-7.238,2.996-9.922C431.452,384.863,431.661,384.413,431.99,384.082z"/>
		<path style="fill:#263238;" d="M377.27,405.934h8.776c0.319,0,0.591,0.222,0.653,0.534l1.384,6.944
			c0.143,0.72-0.438,1.402-1.176,1.389c-3.063-0.053-4.547-0.232-8.407-0.232c-2.374,0-7.272,0.247-10.551,0.247
			c-3.207,0-3.633-3.242-2.284-3.536c6.049-1.317,8.358-3.133,10.325-4.865C376.345,406.102,376.802,405.934,377.27,405.934z"/>
		<path style="opacity:0.27;fill:#407BFF;" d="M377.093,194.306l-4.802,2.861l5.54,20.793
			C376.622,211.69,377.163,204.756,377.093,194.306z"/>
		<path style="fill:#263238;" d="M349.806,161.787c3.409,2.858,8.361,7.029,14.19,2.158c5.005-4.183,8.504-15.153-0.463-15.556
			C358.835,148.177,349.806,161.787,349.806,161.787z"/>
		<path style="fill:#E58A7B;" d="M358.049,163.739c-0.006,4.724,0.728,13.234,4.503,15.65c0,0-0.345,4.858-8.799,6.505
			c-9.297,1.811-5.342-3.749-5.342-3.749c4.838-2.2,3.974-5.939,2.401-9.302L358.049,163.739z"/>
		<path style="fill:#CF6F64;" d="M355.099,167.452l-4.284,5.385c0.375,0.795,0.705,1.612,0.925,2.425
			c1.884-0.658,4.132-3.304,3.942-5.374C355.588,168.856,355.356,167.892,355.099,167.452z"/>
		<path style="fill:#E58A7B;" d="M358.499,152.904c1.013,7.687,1.606,10.919-1.471,15.564c-4.628,6.988-14.291,6.552-17.58-0.677
			c-2.961-6.507-4.12-17.984,2.726-22.455C348.919,140.931,357.486,145.217,358.499,152.904z"/>
		<path style="fill:#263238;" d="M345.142,139.431c-5.204,3.69,5.229,4.777,5.242,10.129c0.005,2.208,3.627,9.216,8.79,8.824
			l5.007-8.888C369.429,140.982,357.03,131.002,345.142,139.431z"/>
		<path style="fill:#263238;" d="M345.142,139.431c-9.15-0.482-13.139,6.804-12.094,13.336c0,0,9.341-2.585,19.546-1.543
			C365.126,152.502,345.142,139.431,345.142,139.431z"/>
		<path style="fill:#E58A7B;" d="M361.014,159.528c0.151,1.6-0.452,3.121-1.31,4.124c-1.292,1.51-3.039,0.621-3.603-1.175
			c-0.508-1.617-0.448-4.35,1.293-5.203C359.108,156.433,360.842,157.698,361.014,159.528z"/>
		<path style="fill:#263238;" d="M347.392,157.271c0.12,0.618-0.11,1.184-0.514,1.262c-0.404,0.079-0.83-0.359-0.95-0.977
			c-0.12-0.618,0.11-1.184,0.514-1.262C346.846,156.215,347.271,156.653,347.392,157.271z"/>
		<path style="fill:#263238;" d="M340.401,158.633c0.12,0.618-0.11,1.184-0.514,1.262c-0.404,0.079-0.83-0.359-0.95-0.977
			c-0.121-0.618,0.11-1.184,0.514-1.262C339.855,157.577,340.28,158.014,340.401,158.633z"/>
		<path style="fill:#263238;" d="M339.636,157.655l-1.569-0.139C338.067,157.516,339.055,158.528,339.636,157.655z"/>
		<path style="fill:#DF5753;" d="M342.456,159.336c0,0-0.531,2.867-1.436,4.377c0.965,0.603,2.285-0.016,2.285-0.016
			L342.456,159.336z"/>
		<path style="fill:#263238;" d="M345.921,165.712c-0.087,0-0.164-0.061-0.182-0.15c-0.02-0.1,0.046-0.197,0.146-0.217
			c2.716-0.529,3.612-2.671,3.621-2.693c0.039-0.096,0.148-0.141,0.241-0.102c0.095,0.038,0.141,0.146,0.103,0.241
			c-0.039,0.096-0.983,2.351-3.895,2.917C345.944,165.711,345.933,165.712,345.921,165.712z"/>
		<path style="fill:#263238;" d="M348.988,154.613c-0.088,0-0.177-0.031-0.247-0.095c-1.216-1.089-2.509-0.772-2.564-0.759
			c-0.192,0.049-0.4-0.067-0.451-0.264c-0.053-0.197,0.064-0.398,0.261-0.452c0.067-0.019,1.725-0.444,3.249,0.923
			c0.152,0.136,0.165,0.37,0.028,0.522C349.19,154.572,349.09,154.613,348.988,154.613z"/>
		<path style="fill:#263238;" d="M336.529,156.037c-0.048,0-0.096-0.009-0.143-0.028c-0.189-0.079-0.277-0.295-0.199-0.484
			c0.787-1.89,2.465-2.219,2.535-2.232c0.215-0.04,0.395,0.097,0.432,0.297c0.036,0.2-0.096,0.393-0.296,0.431
			c-0.063,0.012-1.361,0.286-1.987,1.789C336.811,155.951,336.674,156.037,336.529,156.037z"/>
		<path style="fill:#407BFF;" d="M429.685,387.711c-0.332,0-0.621-0.16-0.861-0.477c-0.19-0.251-0.165-0.479-0.109-0.627
			c0.349-0.934,3.106-1.54,3.42-1.605c0.073-0.016,0.146,0.014,0.189,0.074c0.042,0.06,0.045,0.14,0.007,0.203
			c-0.543,0.887-1.603,2.381-2.594,2.431C429.719,387.711,429.701,387.711,429.685,387.711z M431.773,385.465
			c-1.097,0.273-2.529,0.779-2.713,1.271c-0.023,0.063-0.038,0.149,0.058,0.274c0.176,0.233,0.366,0.339,0.6,0.329
			C430.253,387.314,431.007,386.621,431.773,385.465z"/>
		<path style="fill:#407BFF;" d="M431.323,385.455c-0.981,0-2.257-0.242-2.624-0.788c-0.096-0.143-0.214-0.438,0.072-0.806
			c0.183-0.234,0.427-0.362,0.728-0.382c0.025-0.002,0.051-0.002,0.077-0.002c1.126,0,2.66,1.508,2.726,1.574
			c0.047,0.046,0.065,0.113,0.049,0.178c-0.017,0.064-0.065,0.113-0.129,0.131C432.001,385.423,431.682,385.455,431.323,385.455z
			 M429.579,383.847c-0.02,0-0.038,0.001-0.057,0.002c-0.193,0.013-0.343,0.091-0.458,0.239c-0.146,0.189-0.108,0.298-0.058,0.373
			c0.306,0.454,1.829,0.719,2.772,0.607C431.231,384.585,430.253,383.847,429.579,383.847z"/>
		<path style="fill:#407BFF;" d="M374.4,407.3c-0.772,0-1.49-0.119-1.909-0.476c-0.268-0.227-0.396-0.528-0.384-0.897
			c0.008-0.219,0.104-0.39,0.281-0.494c0.921-0.542,4.14,1.057,4.505,1.24c0.07,0.035,0.11,0.111,0.1,0.189
			c-0.011,0.078-0.069,0.142-0.148,0.157C376.189,407.151,375.261,407.3,374.4,407.3z M372.923,405.682
			c-0.146,0-0.264,0.021-0.346,0.07c-0.047,0.027-0.096,0.071-0.1,0.188c-0.009,0.253,0.074,0.45,0.254,0.602
			c0.501,0.425,1.786,0.501,3.491,0.216C375.119,406.242,373.661,405.682,372.923,405.682z"/>
		<path style="fill:#407BFF;" d="M376.81,407.022c-0.025,0-0.051-0.005-0.074-0.016c-0.978-0.43-2.922-2.131-2.782-3.01
			c0.031-0.201,0.174-0.452,0.672-0.503c0.051-0.006,0.102-0.008,0.15-0.008c1.744,0,2.198,3.188,2.218,3.326
			c0.009,0.066-0.019,0.133-0.072,0.173C376.889,407.011,376.849,407.022,376.81,407.022z M374.77,403.856
			c-0.035,0-0.071,0.002-0.107,0.005c-0.318,0.033-0.338,0.153-0.344,0.193c-0.083,0.526,1.241,1.859,2.243,2.446
			C376.396,405.702,375.895,403.856,374.77,403.856z"/>
		<path style="fill:#263238;" d="M346.627,156.293l-1.569-0.139C345.058,156.154,346.046,157.166,346.627,156.293z"/>
		<path style="fill:#E58A7B;" d="M353.495,192.54c-16.73,3.73-11.56-6.39-10.56-8.62c0.15-0.06,0.29-0.11,0.42-0.16
			c1.98-0.73,2.4-0.84,5.06-1.62c4.52-1.32,8.85-1.98,14.14-2.75c0.34-0.05,0.68-0.1,1.01-0.14c0.96-0.13,1.91-0.23,2.83-0.31
			c0.62-0.07,1.24-0.11,1.83-0.15c0.7-0.05,1.38-0.09,2.02-0.12v0.01C370.555,180.23,371.385,188.57,353.495,192.54z"/>
		<path style="fill:#26395A;" d="M379.763,224.214l1.947,2.514c0.151,0.195-0.062,0.465-0.422,0.536l-32.66,6.362
			c-0.281,0.055-0.54-0.038-0.592-0.211l-0.824-2.733c-0.057-0.189,0.155-0.4,0.462-0.46l31.536-6.143
			C379.443,224.033,379.666,224.088,379.763,224.214z"/>
		<path style="fill:#407BFF;" d="M376.215,228.565l0.845-0.165c0.168-0.033,0.28-0.144,0.247-0.248l-1.102-3.544
			c-0.032-0.104-0.196-0.162-0.365-0.129l-0.845,0.164c-0.168,0.033-0.279,0.144-0.247,0.248l1.102,3.545
			C375.883,228.54,376.047,228.598,376.215,228.565z"/>
		<path style="fill:#E58A7B;" d="M357.076,240.359l-6.509-2.415l1.001,6.188c0,0,4.72,1.697,7.132-0.477L357.076,240.359z"/>
		<polygon style="fill:#E58A7B;" points="344.373,239.583 342.817,243.639 351.569,244.132 350.567,237.944 		"/>
		<path style="fill:#407BFF;" d="M351.062,233.464l0.845-0.165c0.168-0.033,0.28-0.144,0.247-0.248l-1.102-3.545
			c-0.032-0.104-0.196-0.162-0.364-0.129l-0.845,0.165c-0.168,0.033-0.28,0.145-0.247,0.248l1.102,3.544
			C350.729,233.439,350.893,233.497,351.062,233.464z"/>
		<path style="fill:#407BFF;" d="M363.638,231.015l0.845-0.165c0.168-0.033,0.279-0.145,0.247-0.248l-1.102-3.544
			c-0.032-0.104-0.196-0.162-0.364-0.129l-0.845,0.165c-0.168,0.033-0.279,0.145-0.247,0.248l1.101,3.544
			C363.306,230.989,363.47,231.047,363.638,231.015z"/>
		<path style="fill:#407BFF;" d="M360.079,175.424c0.715-0.275,1.602,2.231,1.38,2.548c-0.513,0.733-9.854,3.281-10.266,1.85
			c-0.006-0.609,0.079-1.801,0.346-2.283C351.807,177.058,353.879,177.943,360.079,175.424z"/>
		<path style="fill:#407BFF;" d="M358.496,175.477c0.367-0.825,1.398-2.157,2.293-1.396c0.895,0.761,1.279,2.403,0.692,2.665
			C360.895,177.007,357.879,176.866,358.496,175.477z"/>
		<path style="fill:#407BFF;" d="M360.411,175.908c0.622-0.655,2.04-1.564,2.628-0.548c0.588,1.017,0.4,2.693-0.24,2.743
			C362.159,178.153,359.365,177.01,360.411,175.908z"/>
		<path style="fill:#407BFF;" d="M360.751,175.763c-0.138-0.835,0.259-1.93,1.392-2.671c1.133-0.741,2.244-1.218,2.69-1.98
			c0,0,0.331,1.196,0.107,2.241c-0.228,1.066-3.779,1.883-3.539,2.821L360.751,175.763z"/>
		<path style="fill:#407BFF;" d="M360.603,175.71c-0.571-0.625-0.833-1.76-0.286-2.998c0.547-1.239,1.22-2.243,1.179-3.125
			c0,0,0.928,0.823,1.31,1.822c0.389,1.018-2.146,3.636-1.434,4.292L360.603,175.71z"/>
		<g>
			<path style="fill:#407BFF;" d="M430.153,371.056c-0.039,0-0.078-0.019-0.103-0.053c-0.229-0.326-23.09-32.946-31.476-61.607
				c-7.885-26.954-10.722-44.478-12.599-56.073c-1.729-10.684-2.773-17.132-6.221-22.424c-0.038-0.058-0.022-0.135,0.036-0.173
				c0.06-0.038,0.137-0.02,0.173,0.037c3.477,5.337,4.523,11.805,6.258,22.521c1.877,11.59,4.712,29.104,12.593,56.043
				c8.373,28.621,31.21,61.208,31.44,61.533c0.039,0.057,0.026,0.135-0.03,0.175C430.203,371.048,430.179,371.056,430.153,371.056z"
				/>
			<path style="opacity:0.4;" d="M430.153,371.056c-0.039,0-0.078-0.019-0.103-0.053c-0.229-0.326-23.09-32.946-31.476-61.607
				c-7.885-26.954-10.722-44.478-12.599-56.073c-1.729-10.684-2.773-17.132-6.221-22.424c-0.038-0.058-0.022-0.135,0.036-0.173
				c0.06-0.038,0.137-0.02,0.173,0.037c3.477,5.337,4.523,11.805,6.258,22.521c1.877,11.59,4.712,29.104,12.593,56.043
				c8.373,28.621,31.21,61.208,31.44,61.533c0.039,0.057,0.026,0.135-0.03,0.175C430.203,371.048,430.179,371.056,430.153,371.056z"
				/>
		</g>
		<polygon style="fill:#407BFF;" points="387.896,395.134 372.624,397.113 371.615,392.854 387.532,389.479 		"/>
		<polygon style="fill:#407BFF;" points="434.736,370.59 423.466,377.099 419.668,373.845 432.001,365.514 		"/>
		<path style="fill:#E58A7B;" d="M381.847,189.125c0.542,2.789,0.857,5.4,1.153,8.11c0.271,2.69,0.413,5.395,0.491,8.109
			c0.093,2.713,0.012,5.448-0.181,8.185c-0.112,1.372-0.227,2.742-0.419,4.118c-0.082,0.686-0.17,1.373-0.3,2.063l-0.372,2.119
			c-0.466,2.063-1.327,3.508-2.21,4.793c-0.895,1.275-1.854,2.376-2.837,3.412c-1.969,2.06-4.065,3.824-6.197,5.499
			c-4.311,3.299-8.737,6.206-13.461,8.788l-2.147-3.323c1.994-1.589,4.029-3.227,5.978-4.903c1.974-1.653,3.897-3.355,5.722-5.116
			c1.837-1.741,3.591-3.548,5.117-5.393c0.757-0.921,1.45-1.862,1.994-2.777c0.538-0.902,0.932-1.818,0.983-2.334
			c0.305-2.307,0.528-4.847,0.57-7.318c0.017-1.248,0.031-2.497-0.009-3.753c-0.01-1.254-0.05-2.513-0.112-3.773
			c-0.124-2.521-0.35-5.044-0.618-7.565c-0.251-2.5-0.618-5.086-0.993-7.456L381.847,189.125z"/>
		<g>
			<path style="fill:#407BFF;" d="M380.637,180.625c4.275,3.466,3.256,13.74,3.256,13.74l-14.399,4.742
				c0,0,0.659-11.847,1.372-16.108C371.713,177.934,376.432,177.217,380.637,180.625z"/>
			<path style="opacity:0.2;" d="M380.637,180.625c4.275,3.466,3.256,13.74,3.256,13.74l-14.399,4.742
				c0,0,0.659-11.847,1.372-16.108C371.713,177.934,376.432,177.217,380.637,180.625z"/>
		</g>
	</g>
</g>
<g id="Documents">
	<g>
		<g>
			<path style="fill:#407BFF;" d="M190.407,223.531L190.407,223.531c-1.149-4.993-5.593-8.532-10.717-8.532H99.642
				c-6.074,0-10.997,4.924-10.997,10.997v177.821c0,6.073,4.924,10.997,10.997,10.997h254.022c6.074,0,10.997-4.924,10.997-10.997
				V254.454c0-6.074-4.924-10.997-10.997-10.997H215.438C203.471,243.456,193.09,235.193,190.407,223.531z"/>
			<path style="opacity:0.6;" d="M190.407,223.531L190.407,223.531c-1.149-4.993-5.593-8.532-10.717-8.532H99.642
				c-6.074,0-10.997,4.924-10.997,10.997v177.821c0,6.073,4.924,10.997,10.997,10.997h254.022c6.074,0,10.997-4.924,10.997-10.997
				V254.454c0-6.074-4.924-10.997-10.997-10.997H215.438C203.471,243.456,193.09,235.193,190.407,223.531z"/>
		</g>
		<g>
			<path style="opacity:0.22;fill:#407BFF;" d="M162.168,168.154l7.132,23.089c1.891,6.122,8.389,9.547,14.512,7.656l23.081-7.13
				L162.168,168.154z"/>
			<g>
				<g>
					<path style="fill:#407BFF;" d="M162.168,168.154l-82.5,25.485c-6.122,1.891-9.549,8.382-7.658,14.505l47.101,152.476
						c1.891,6.122,8.382,9.549,14.505,7.658l105.589-32.617c6.122-1.891,9.549-8.382,7.658-14.504l-39.969-129.388L162.168,168.154z
						"/>
					<path style="opacity:0.8;fill:#FFFFFF;" d="M162.168,168.154l-82.5,25.485c-6.122,1.891-9.549,8.382-7.658,14.505
						l47.101,152.476c1.891,6.122,8.382,9.549,14.505,7.658l105.589-32.617c6.122-1.891,9.549-8.382,7.658-14.504l-39.969-129.388
						L162.168,168.154z"/>
				</g>
				<g style="opacity:0.28;">
					<path style="fill:#407BFF;" d="M206.563,329.03l-68.644,21.205c-2.662,0.822-5.512-0.683-6.335-3.345l0,0
						c-0.822-2.662,0.683-5.512,3.344-6.335l68.644-21.205c2.662-0.822,5.512,0.683,6.334,3.345l0,0
						C210.729,325.357,209.224,328.208,206.563,329.03z"/>
				</g>
				<g style="opacity:0.28;">
					<path style="fill:#407BFF;" d="M132.695,204.576l-36.307,11.215c-2.662,0.822-5.512-0.683-6.335-3.345l0,0
						c-0.822-2.662,0.683-5.512,3.345-6.334l36.307-11.215c2.662-0.822,5.512,0.683,6.335,3.345l0,0
						C136.861,200.903,135.356,203.753,132.695,204.576z"/>
				</g>
				<g style="opacity:0.28;">
					<path style="fill:#407BFF;" d="M162.312,216.465l-59.991,18.532c-2.662,0.822-5.512-0.683-6.334-3.344h0
						c-0.822-2.662,0.683-5.512,3.345-6.335l59.991-18.532c2.662-0.822,5.512,0.683,6.334,3.345l0,0
						C166.479,212.793,164.974,215.643,162.312,216.465z"/>
				</g>
				<g style="opacity:0.28;">
					<path style="fill:#407BFF;" d="M195.81,227.157l-87.556,27.046c-2.662,0.822-5.512-0.683-6.334-3.344l0,0
						c-0.822-2.662,0.683-5.512,3.344-6.334l87.556-27.047c2.662-0.822,5.512,0.683,6.335,3.345l0,0
						C199.976,223.484,198.471,226.335,195.81,227.157z"/>
				</g>
				<g style="opacity:0.28;">
					<path style="fill:#407BFF;" d="M201.742,246.363l-50.9,15.723c-2.662,0.822-5.512-0.683-6.335-3.345l0,0
						c-0.822-2.662,0.683-5.512,3.345-6.334l50.9-15.723c2.662-0.822,5.512,0.683,6.335,3.344l0,0
						C205.909,242.69,204.404,245.541,201.742,246.363z"/>
				</g>
				<g style="opacity:0.28;">
					<path style="fill:#407BFF;" d="M127.501,269.297l-13.314,4.113c-2.662,0.822-5.512-0.683-6.334-3.345l0,0
						c-0.822-2.662,0.683-5.512,3.345-6.335l13.314-4.113c2.662-0.822,5.512,0.683,6.335,3.345l0,0
						C131.667,265.624,130.162,268.475,127.501,269.297z"/>
				</g>
				<g style="opacity:0.28;">
					<path style="fill:#407BFF;" d="M207.675,265.569l-87.556,27.047c-2.662,0.822-5.512-0.683-6.334-3.345l0,0
						c-0.822-2.662,0.683-5.512,3.345-6.335l87.556-27.047c2.662-0.822,5.512,0.683,6.335,3.345l0,0
						C211.842,261.897,210.337,264.747,207.675,265.569z"/>
				</g>
				<g style="opacity:0.28;">
					<path style="fill:#407BFF;" d="M179.823,295.212l-53.771,16.61c-2.662,0.822-5.512-0.683-6.334-3.345l0,0
						c-0.822-2.662,0.683-5.512,3.345-6.334l53.771-16.61c2.662-0.822,5.512,0.683,6.335,3.344l0,0
						C183.99,291.539,182.485,294.39,179.823,295.212z"/>
				</g>
				<g style="opacity:0.28;">
					<path style="fill:#407BFF;" d="M213.608,284.775l-14.35,4.433c-2.662,0.822-5.512-0.683-6.335-3.344l0,0
						c-0.822-2.662,0.683-5.512,3.345-6.335l14.35-4.433c2.662-0.822,5.512,0.683,6.335,3.345l0,0
						C217.775,281.103,216.27,283.953,213.608,284.775z"/>
				</g>
				<g style="opacity:0.28;">
					<path style="fill:#407BFF;" d="M219.541,303.982l-87.556,27.047c-2.662,0.822-5.512-0.683-6.334-3.345l0,0
						c-0.822-2.662,0.683-5.512,3.344-6.334l87.556-27.047c2.662-0.822,5.512,0.683,6.335,3.345l0,0
						C223.708,300.309,222.203,303.159,219.541,303.982z"/>
				</g>
			</g>
		</g>
		<g>
			<g>
				<path style="fill:#407BFF;" d="M221.416,110.806l26.188,58.34c1.418,3.159-0.006,6.905-3.166,8.323l-111.06,49.854
					c-3.16,1.418-6.905-0.006-8.323-3.166l-26.188-58.34c-0.741-1.652-0.705-3.468-0.053-5.026c0.602-1.415,1.711-2.62,3.219-3.297
					l111.06-49.853c1.508-0.677,3.146-0.705,4.603-0.214C219.294,107.974,220.675,109.155,221.416,110.806z"/>
				<path style="opacity:0.3;" d="M221.416,110.806l26.188,58.34c1.418,3.159-0.006,6.905-3.166,8.323l-111.06,49.854
					c-3.16,1.418-6.905-0.006-8.323-3.166l-26.188-58.34c-0.741-1.652-0.705-3.468-0.053-5.026c0.602-1.415,1.711-2.62,3.219-3.297
					l111.06-49.853c1.508-0.677,3.146-0.705,4.603-0.214C219.294,107.974,220.675,109.155,221.416,110.806z"/>
			</g>
			
				<rect x="200.397" y="108.679" transform="matrix(0.9124 -0.4093 0.4093 0.9124 -26.9618 92.3819)" style="fill:#407BFF;" width="3.888" height="1"/>
			
				<rect x="184" y="114.191" transform="matrix(0.9124 -0.4092 0.4092 0.9124 -30.2918 87.8262)" style="fill:#407BFF;" width="12.125" height="1"/>
			
				<rect x="99.333" y="171.594" transform="matrix(0.9123 -0.4096 0.4096 0.9123 -63.0367 56.2642)" style="fill:#407BFF;" width="1" height="7.4"/>
			<path style="opacity:0.6;fill:#407BFF;" d="M217.696,107.426l-28.635,56.101c-5.469,10.714-17.657,16.185-29.297,13.151
				l-60.95-15.887c0.602-1.415,1.711-2.62,3.219-3.297l111.06-49.853C214.601,106.964,216.239,106.936,217.696,107.426z"/>
		</g>
		<g>
			<g>
				<path style="fill:#407BFF;" d="M257.069,179.235l-86.183,5.316c-6.395,0.394-11.257,5.895-10.862,12.29l9.825,159.283
					c0.395,6.395,5.895,11.257,12.29,10.862l110.302-6.804c6.395-0.395,11.256-5.895,10.862-12.29l-8.337-135.164L257.069,179.235z"
					/>
				<path style="opacity:0.8;fill:#FFFFFF;" d="M257.069,179.235l-86.183,5.316c-6.395,0.394-11.257,5.895-10.862,12.29
					l9.825,159.283c0.395,6.395,5.895,11.257,12.29,10.862l110.302-6.804c6.395-0.395,11.256-5.895,10.862-12.29l-8.337-135.164
					L257.069,179.235z"/>
			</g>
			<g style="opacity:0.22;">
				<path style="fill:#407BFF;" d="M262.283,346.042l-71.709,4.423c-2.781,0.172-5.196-1.963-5.367-4.744l0,0
					c-0.172-2.781,1.963-5.196,4.744-5.367l71.709-4.423c2.781-0.171,5.196,1.963,5.367,4.744l0,0
					C267.198,343.455,265.063,345.871,262.283,346.042z"/>
			</g>
			<g style="opacity:0.22;">
				<path style="fill:#407BFF;" d="M219.839,207.681l-37.928,2.339c-2.781,0.172-5.196-1.963-5.367-4.744l0,0
					c-0.172-2.781,1.963-5.196,4.744-5.367l37.928-2.339c2.781-0.172,5.196,1.963,5.367,4.744v0
					C224.754,205.094,222.62,207.509,219.839,207.681z"/>
			</g>
			<g style="opacity:0.22;">
				<path style="fill:#407BFF;" d="M245.818,226.218l-62.669,3.866c-2.781,0.172-5.196-1.963-5.367-4.744v0
					c-0.171-2.781,1.963-5.196,4.744-5.367l62.669-3.866c2.781-0.171,5.196,1.963,5.367,4.744l0,0
					C250.733,223.631,248.599,226.047,245.818,226.218z"/>
			</g>
			<g style="opacity:0.22;">
				<path style="fill:#407BFF;" d="M275.851,244.505l-91.464,5.642c-2.781,0.172-5.196-1.963-5.367-4.744l0,0
					c-0.172-2.781,1.963-5.196,4.744-5.367l91.464-5.642c2.781-0.171,5.196,1.963,5.367,4.744l0,0
					C280.766,241.919,278.632,244.334,275.851,244.505z"/>
			</g>
			<g style="opacity:0.22;">
				<path style="fill:#407BFF;" d="M277.089,264.569l-53.172,3.28c-2.781,0.171-5.196-1.963-5.367-4.744l0,0
					c-0.172-2.781,1.963-5.196,4.744-5.367l53.172-3.28c2.781-0.171,5.196,1.963,5.367,4.744l0,0
					C282.004,261.982,279.869,264.398,277.089,264.569z"/>
			</g>
			<g style="opacity:0.22;">
				<path style="fill:#407BFF;" d="M199.532,269.353l-13.908,0.858c-2.781,0.172-5.196-1.963-5.367-4.744l0,0
					c-0.171-2.781,1.963-5.196,4.744-5.367l13.908-0.858c2.781-0.171,5.196,1.963,5.367,4.744l0,0
					C204.448,266.766,202.313,269.181,199.532,269.353z"/>
			</g>
			<g style="opacity:0.22;">
				<path style="fill:#407BFF;" d="M278.326,284.633l-91.464,5.642c-2.781,0.171-5.196-1.963-5.367-4.744l0,0
					c-0.172-2.781,1.963-5.196,4.744-5.367l91.464-5.642c2.78-0.172,5.196,1.963,5.367,4.744l0,0
					C283.241,282.046,281.107,284.461,278.326,284.633z"/>
			</g>
			<g style="opacity:0.22;">
				<path style="fill:#407BFF;" d="M244.271,306.873l-56.171,3.465c-2.781,0.171-5.196-1.963-5.367-4.744l0,0
					c-0.171-2.781,1.963-5.196,4.744-5.367l56.171-3.465c2.781-0.171,5.196,1.963,5.367,4.744l0,0
					C249.186,304.286,247.051,306.702,244.271,306.873z"/>
			</g>
			<g style="opacity:0.22;">
				<path style="fill:#407BFF;" d="M279.564,304.696l-14.991,0.925c-2.781,0.171-5.196-1.963-5.367-4.744l0,0
					c-0.172-2.781,1.963-5.196,4.744-5.367l14.99-0.925c2.781-0.172,5.196,1.963,5.367,4.744v0
					C284.479,302.109,282.344,304.525,279.564,304.696z"/>
			</g>
			<g style="opacity:0.22;">
				<path style="fill:#407BFF;" d="M280.801,324.76l-91.464,5.642c-2.781,0.172-5.196-1.963-5.367-4.744l0,0
					c-0.171-2.781,1.963-5.196,4.744-5.367l91.464-5.642c2.781-0.172,5.196,1.963,5.367,4.744l0,0
					C285.716,322.173,283.582,324.588,280.801,324.76z"/>
			</g>
			<path style="opacity:0.22;fill:#407BFF;" d="M257.069,179.235l1.488,24.119c0.395,6.395,5.902,11.256,12.298,10.862l24.112-1.487
				L257.069,179.235z"/>
		</g>
		<path style="opacity:0.5;fill:#407BFF;" d="M228.852,239.395L228.852,239.395c-0.174-4.993-3.928-8.532-9.051-8.532h-80.049
			c-6.074,0-11.959,4.924-13.145,10.997L94.983,403.817c-1.186,6.073,2.776,10.997,8.85,10.997h254.022
			c6.074,0,11.959-4.924,13.145-10.997l26.067-133.499c1.186-6.074-2.776-10.997-8.85-10.997H249.991
			C238.025,259.321,229.257,251.057,228.852,239.395z"/>
	</g>
</g>
</svg>
