<svg width="191" height="45" viewBox="0 0 191 45" fill="none" xmlns="http://www.w3.org/2000/svg">
<path d="M0 22.5C0 10.0736 10.0736 0 22.5 0H155C174.882 0 191 16.1178 191 36C191 40.9706 186.971 45 182 45H22.5C10.0736 45 0 34.9264 0 22.5Z" fill="#1E1E26"/>
<path d="M79.3716 30.0769L73.0916 16.0769H73.8516L79.9116 29.6169H79.5316L85.5916 16.0769H86.3116L80.0316 30.0769H79.3716ZM88.7338 30.0769V16.0769H89.4138V30.0769H88.7338ZM94.5346 30.0769V16.0769H99.3946C100.555 16.0769 101.548 16.2636 102.375 16.6369C103.215 17.0103 103.855 17.5436 104.295 18.2369C104.735 18.9169 104.955 19.7436 104.955 20.7169C104.955 21.6903 104.735 22.5236 104.295 23.2169C103.855 23.9103 103.215 24.4436 102.375 24.8169C101.548 25.1903 100.555 25.3769 99.3946 25.3769H94.9146L95.2146 25.0569V30.0769H94.5346ZM104.375 30.0769L100.735 24.9969H101.515L105.175 30.0769H104.375ZM95.2146 25.0569L94.9146 24.7569H99.4346C101.008 24.7569 102.208 24.4036 103.035 23.6969C103.875 22.9903 104.295 21.9969 104.295 20.7169C104.295 19.4369 103.875 18.4503 103.035 17.7569C102.208 17.0503 101.008 16.6969 99.4346 16.6969H94.9146L95.2146 16.3769V25.0569ZM111.355 30.0769V16.6969H106.215V16.0769H117.155V16.6969H112.015V30.0769H111.355ZM124.876 30.1569C123.169 30.1569 121.822 29.6569 120.836 28.6569C119.862 27.6569 119.376 26.1636 119.376 24.1769V16.0769H120.056V24.1569C120.056 25.9703 120.476 27.3236 121.316 28.2169C122.156 29.0969 123.342 29.5369 124.876 29.5369C126.409 29.5369 127.596 29.0969 128.436 28.2169C129.276 27.3236 129.696 25.9703 129.696 24.1569V16.0769H130.356V24.1769C130.356 26.1636 129.862 27.6569 128.876 28.6569C127.902 29.6569 126.569 30.1569 124.876 30.1569ZM132.642 30.0769L139.122 16.0769H139.782L146.262 30.0769H145.522L139.302 16.5369H139.602L133.382 30.0769H132.642ZM134.882 25.9769L135.142 25.3969H143.702L143.962 25.9769H134.882ZM148.988 30.0769V16.0769H149.668V29.4569H157.868V30.0769H148.988Z" fill="white"/>
<path d="M22.0065 30.0769V16.0769H25.8865L33.0065 24.5969H31.2065V16.0769H35.8065V30.0769H31.9265L24.8065 21.5569H26.6065V30.0769H22.0065ZM36.5607 30.0769L42.6807 16.0769H47.3207L53.4407 30.0769H48.5607L44.0407 18.3169H45.8807L41.3607 30.0769H36.5607ZM40.2007 27.6369L41.4007 24.2369H47.8407L49.0407 27.6369H40.2007ZM59.414 30.3969C58.2407 30.3969 57.1073 30.2636 56.014 29.9969C54.9207 29.7303 54.0207 29.3836 53.314 28.9569L54.834 25.5169C55.5007 25.9036 56.2407 26.2169 57.054 26.4569C57.8807 26.6836 58.6807 26.7969 59.454 26.7969C59.9073 26.7969 60.2607 26.7703 60.514 26.7169C60.7807 26.6503 60.974 26.5636 61.094 26.4569C61.214 26.3369 61.274 26.1969 61.274 26.0369C61.274 25.7836 61.134 25.5836 60.854 25.4369C60.574 25.2903 60.2007 25.1703 59.734 25.0769C59.2807 24.9703 58.7807 24.8636 58.234 24.7569C57.6873 24.6369 57.134 24.4836 56.574 24.2969C56.0273 24.1103 55.5207 23.8636 55.054 23.5569C54.6007 23.2503 54.234 22.8503 53.954 22.3569C53.674 21.8503 53.534 21.2236 53.534 20.4769C53.534 19.6103 53.774 18.8236 54.254 18.1169C54.7473 17.3969 55.474 16.8236 56.434 16.3969C57.4073 15.9703 58.614 15.7569 60.054 15.7569C61.0007 15.7569 61.934 15.8569 62.854 16.0569C63.774 16.2569 64.6007 16.5636 65.334 16.9769L63.914 20.3969C63.2207 20.0503 62.5473 19.7903 61.894 19.6169C61.254 19.4436 60.6273 19.3569 60.014 19.3569C59.5607 19.3569 59.2007 19.3969 58.934 19.4769C58.6673 19.5569 58.474 19.6636 58.354 19.7969C58.2473 19.9303 58.194 20.0769 58.194 20.2369C58.194 20.4769 58.334 20.6703 58.614 20.8169C58.894 20.9503 59.2607 21.0636 59.714 21.1569C60.1807 21.2503 60.6873 21.3503 61.234 21.4569C61.794 21.5636 62.3473 21.7103 62.894 21.8969C63.4407 22.0836 63.9407 22.3303 64.394 22.6369C64.8607 22.9436 65.234 23.3436 65.514 23.8369C65.794 24.3303 65.934 24.9436 65.934 25.6769C65.934 26.5303 65.6873 27.3169 65.194 28.0369C64.714 28.7436 63.994 29.3169 63.034 29.7569C62.074 30.1836 60.8673 30.3969 59.414 30.3969Z" fill="white"/>
</svg>
